<svg width="333" height="382" viewBox="0 0 333 382" fill="none" xmlns="http://www.w3.org/2000/svg">
<g clip-path="url(#clip0_87_6808)">
<path opacity="0.29" d="M1.64429 170.102C1.64429 170.102 5.73315 258.654 75.1788 300.549C144.624 342.445 256.322 328.224 296.233 300.549C343.893 267.501 338.953 181.375 316.627 148.09C280.923 94.8682 251.739 121.162 217.575 80.086C183.411 39.01 116.075 17.4913 55.3979 51.7219C-5.28224 85.9525 -1.90371 128.642 1.64429 170.102Z" fill="#06ACA9"/>
<path d="M119.305 13.5028C116.511 13.7856 111.903 14.5615 106.541 16.6318C106.512 16.998 106.483 17.3642 106.44 17.7232C106.033 21.1966 106.263 24.7063 106.692 28.1653C106.92 30.018 107.089 31.9506 107.45 33.7743C107.713 35.0977 108.127 36.6785 109.202 37.5813C109.371 37.7227 109.555 37.846 109.754 37.9403C112.18 39.086 117.34 38.0164 121.598 36.7764L122.114 16.1315C122.154 14.5833 120.841 13.3469 119.312 13.5028H119.305Z" fill="#A6A8AB"/>
<path d="M146.546 4.86648C145.807 3.66273 144.898 2.54238 143.741 1.73746C142.584 0.932548 141.156 0.468453 139.76 0.631611C136.501 1.01231 134.28 3.37992 130.836 2.10729C129.603 1.65044 128.37 1.03407 127.058 1.07395C122.756 1.1936 120.055 5.64964 116.222 6.98753C114.564 7.56765 112.397 7.39724 110.89 8.2783C109.631 9.01432 108.211 10.1492 107.547 11.4762C106.75 13.0679 106.685 14.8771 106.548 16.632C111.91 14.5617 116.518 13.7858 119.312 13.503C120.845 13.3471 122.154 14.5835 122.114 16.1317L121.598 36.7766C125.273 35.7106 128.28 34.5178 128.28 34.5178C128.28 34.5178 138.008 26.7587 138.062 26.7152C139.876 25.2721 142.263 24.8334 144.084 23.2961C146.005 21.6718 147.466 19.4927 148.212 17.0816C149.467 13.0353 148.76 8.47409 146.55 4.86285L146.546 4.86648Z" fill="#633420"/>
<path d="M71.072 375.156C71.072 371.639 100.585 371.733 135.718 371.733C170.856 371.733 189.194 371.505 188.765 374.648C188.495 376.632 169.9 377.099 134.763 377.099C99.6254 377.099 71.0684 377.397 71.0684 375.156H71.072Z" fill="#807891"/>
<path d="M106.249 312.757C106.249 313.192 102.773 337.513 101.904 343.594C101.035 349.674 101.035 359.232 101.035 359.232L84.9644 357.93C84.9644 357.93 87.5713 328.395 87.5713 315.364C87.5713 302.333 106.249 312.757 106.249 312.757Z" fill="#EDE2D8"/>
<path d="M139.695 327.521C139.695 327.956 140.997 340.117 140.997 345.762C140.997 351.407 139.259 357.923 139.259 357.923L164.448 358.793C164.448 358.793 158.802 350.541 157.933 347.067C157.064 343.594 158.802 318.837 158.802 318.837L139.691 327.525L139.695 327.521Z" fill="#EDE2D8"/>
<path d="M78.4561 339.685L86.3886 339.925L102.369 340.41L107.125 340.552C107.125 340.552 107.179 340.084 107.276 339.225C108.153 331.542 112.645 292.46 115.378 274.099C116.712 265.158 118.789 252.055 120.708 240.151C121.421 235.732 122.11 231.475 122.73 227.661C123.271 224.336 123.762 221.352 124.169 218.876C124.652 215.899 125.024 213.662 125.218 212.491C125.316 211.881 125.37 211.559 125.37 211.559C125.37 211.559 125.377 211.613 125.402 211.718C125.485 212.197 125.759 213.727 126.145 215.928C126.628 218.705 127.292 222.559 127.98 226.711C128.701 231.087 129.448 235.797 130.032 239.945C130.479 243.11 130.836 245.938 131.02 248.041C131.802 257.04 138.57 327.307 139.911 341.212C140.063 342.749 140.142 343.597 140.142 343.597C140.142 343.597 140.431 343.565 140.957 343.514C143.459 343.246 151.28 342.379 157.724 341.328C162.53 340.541 166.579 339.645 167.073 338.819C167.181 338.641 167.214 337.26 167.185 334.863C167.044 321.937 165.119 279.589 163.15 238.951C162.851 232.719 162.552 226.522 162.252 220.485C161.838 212.088 161.434 203.981 161.059 196.476C160.998 195.181 160.929 193.912 160.868 192.661C160.861 192.509 160.853 192.364 160.846 192.215C160.749 190.279 160.655 188.387 160.561 186.545C160.525 185.849 160.489 185.153 160.453 184.475C160.381 183.024 160.312 181.614 160.24 180.24C160.233 180.098 160.226 179.957 160.219 179.819C160.193 179.214 160.161 178.623 160.129 178.042C160.107 177.575 160.078 177.114 160.056 176.661C159.966 174.942 159.887 173.289 159.804 171.719C159.79 171.364 159.772 171.012 159.754 170.668C159.739 170.41 159.728 170.156 159.714 169.906C159.624 168.18 159.544 166.563 159.469 165.062C159.451 164.769 159.436 164.486 159.418 164.203C159.206 159.972 158.881 156.839 158.78 154.852C158.701 153.377 156.746 145.712 156.746 145.712L155.149 146.484L154.039 144.668C154.039 144.668 151.572 144.483 147.631 144.309C139.699 143.961 125.784 143.678 113.987 145.121C112.375 145.317 110.795 145.549 109.285 145.813C104.644 146.625 100.581 147.786 97.6708 149.414C96.6071 150.005 95.7021 150.657 94.9773 151.382C94.1228 152.231 93.5278 153.174 93.2358 154.221C93.1817 154.417 93.124 154.642 93.0663 154.896C92.9329 155.49 92.7923 156.252 92.6445 157.162C92.5363 157.825 92.4281 158.561 92.3163 159.374C91.9738 161.803 91.6096 164.906 91.2202 168.558C91.1589 169.134 91.094 169.732 91.0327 170.338C90.8488 172.129 90.6577 174.036 90.463 176.048C90.3404 177.343 90.2142 178.673 90.0844 180.048C89.9546 181.48 89.8176 182.955 89.6842 184.467C89.6121 185.24 89.5472 186.026 89.475 186.824C89.3056 188.713 89.1361 190.66 88.9703 192.654C88.8621 193.909 88.7575 195.178 88.6493 196.468C87.6866 208.027 86.6734 221.044 85.6819 234.397C82.462 277.801 79.426 324.769 78.658 336.766C78.539 338.659 78.4705 339.682 78.4705 339.682L78.4561 339.685Z" fill="#005AA2"/>
<path d="M136.652 372.694C136.652 372.694 136.652 373.564 137.085 374.431C137.517 375.301 146.207 375.301 147.076 374.866C147.945 374.431 147.945 372.694 148.814 372.259C149.683 371.824 154.024 374.866 158.369 375.301C162.714 375.736 177.695 376.385 184.864 375.301C186.223 375.098 187.034 373.564 186.602 370.957C186.565 370.743 186.519 370.54 186.461 370.345C185.826 368.169 183.854 367.158 179.866 365.961C178.265 365.479 176.668 364.986 175.121 364.355C173.408 363.659 171.962 362.644 170.354 361.781C168.786 360.939 167.56 359.199 166.449 357.829C165.169 356.251 163.972 354.613 162.739 352.999C161.69 351.629 160.478 350.153 158.715 349.754C156.53 349.261 154.644 350.889 152.996 352.107C151.781 353.006 150.617 353.992 149.301 354.732C148.356 355.261 147.299 355.668 146.221 355.602C145.035 355.53 143.943 354.892 143.092 354.061C142.248 353.235 141.184 350.631 139.98 352.346C139.331 353.271 139.032 354.493 138.758 355.57C137.935 358.786 137.553 362.121 137.218 365.421C136.814 369.402 136.652 372.69 136.652 372.69V372.694Z" fill="#B25B3B"/>
<path d="M136.652 372.694C136.652 372.694 136.652 373.564 137.085 374.431C137.517 375.301 147.509 375.301 148.378 374.866C149.247 374.431 148.81 373.129 149.679 372.694C150.548 372.259 154.024 374.866 158.366 375.301C162.71 375.736 177.692 376.385 184.86 375.301C186.219 375.098 187.031 373.564 186.598 370.957C186.562 370.743 186.515 370.54 186.457 370.345C184.164 370.602 171.407 371.922 165.097 370.74C158.149 369.438 151.85 367.915 144.686 365.961C142.154 365.272 139.273 365.399 137.215 365.421C136.811 369.402 136.648 372.69 136.648 372.69L136.652 372.694Z" fill="#4A3333"/>
<path d="M80.6522 375.091C83.3132 375.896 103.577 378.154 106.152 374.891C106.786 374.094 106.837 371.592 106.4 369.257C106.065 367.506 105.459 365.849 104.601 365.073C101.645 362.397 103.646 351.407 100.606 350.541C100.606 350.541 91.2998 348.242 87.3083 350.247C83.3168 352.249 84.2038 359.863 81.9863 363.474C81.0813 364.942 80.2484 367.013 79.7652 369.007C79.0585 371.896 79.0801 374.619 80.6522 375.091Z" fill="#B25B3B"/>
<path d="M80.652 375.091C83.313 375.895 103.577 378.154 106.151 374.891C106.786 374.093 106.837 371.592 106.4 369.257C104.417 369.54 92.4246 371.062 79.7686 369.007C79.0619 371.896 79.0836 374.619 80.6556 375.091H80.652Z" fill="#4A3333"/>
<path d="M89.8358 361.708C94.7143 360.856 98.9942 361.85 103.646 363.572C104.576 363.916 104.749 364.834 103.801 364.489C99.4197 362.912 94.8693 362.499 90.2865 363.329C89.2264 363.521 88.7757 361.893 89.8394 361.705L89.8358 361.708Z" fill="#923D1F"/>
<path d="M151.652 338.083C151.652 338.083 168.519 333.398 169.925 335.273C171.331 337.147 171.331 343.706 169.456 345.113C167.582 346.52 140.878 350.265 139.472 349.33C138.065 348.394 137.564 343.184 138.285 342.042C139.003 340.9 151.655 338.086 151.655 338.086L151.652 338.083Z" fill="#7397C4"/>
<path d="M94.9561 337.731C94.9561 337.731 77.5983 335.465 76.4697 337.521C75.3411 339.573 76.2642 346.067 78.3194 347.194C80.371 348.322 107.338 348.275 108.6 347.147C109.858 346.023 109.62 340.795 108.748 339.762C107.875 338.732 94.9561 337.728 94.9561 337.728V337.731Z" fill="#7397C4"/>
<path d="M123.895 218.042C126.113 208.651 128.334 199.26 130.555 189.87C130.793 188.862 132.34 189.29 132.105 190.298C129.917 199.696 127.728 209.097 125.532 218.495C125.283 219.557 123.646 219.108 123.895 218.045V218.042Z" fill="#464D7B"/>
<path opacity="0.5" d="M134.445 210.264C136.627 225.351 138.603 240.467 140.37 255.608C142.154 270.927 143.734 286.267 145.097 301.63C145.865 310.273 146.997 327.612 147.632 336.266C147.671 336.821 146.806 336.821 146.766 336.266C145.648 321.031 143.892 297.123 142.367 281.92C140.842 266.717 139.111 251.54 137.171 236.384C136.068 227.741 134.9 219.104 133.67 210.478C133.598 209.974 134.37 209.757 134.442 210.264H134.445Z" fill="#464D7B"/>
<path d="M97.4436 182.299C100.779 179.054 103.966 175.99 106.541 172.067C107.103 171.212 108.488 172.006 107.925 172.876C105.369 176.821 102.228 180.758 98.3162 183.427C97.6347 183.891 96.8667 182.861 97.4436 182.296V182.299Z" fill="#464D7B"/>
<path opacity="0.5" d="M133.028 179.497C133.616 177.303 134.142 175.106 134.369 172.858C134.759 170.784 135.094 168.695 135.296 166.567C135.704 162.296 135.772 158.003 135.563 153.721C135.516 152.728 137.041 152.735 137.103 153.721C137.492 160.026 137.326 166.701 136.208 173.086C138.758 171.262 140.806 169.123 141.365 165.715C142.06 161.495 141.556 157.129 141.292 152.891C141.231 151.887 142.742 151.916 142.839 152.891C143.326 157.68 144.051 163.224 142.583 167.912C141.498 171.378 138.671 173.568 135.747 175.472C135.397 177.093 134.979 178.692 134.488 180.251C134.178 181.23 132.754 180.827 132.956 179.83C132.978 179.721 133.003 179.613 133.025 179.504L133.028 179.497Z" fill="#464D7B"/>
<path d="M134.892 23.6694C149.077 18.8471 147.408 22.8681 146.715 8.98511C146.672 8.08956 147.974 8.07143 148.078 8.93435C148.973 16.1133 141.812 23.3684 135.357 25.203C134.37 25.4859 133.919 24.0029 134.892 23.673V23.6694Z" fill="#633420"/>
<path d="M97.2418 59.7021C97.5194 59.974 98.1324 60.6665 98.9977 61.6854C106.029 69.9231 129.935 99.4293 130.115 99.4692C130.209 99.4837 133.421 67.9398 134.085 61.4279C134.16 60.6774 134.204 60.2605 134.204 60.2605C134.067 60.0937 133.739 59.8761 133.32 59.626C132.141 58.9226 130.216 58.0306 129.689 57.7478C128.943 57.349 128.215 56.9103 127.533 56.399C127.378 56.283 127.227 56.1634 127.075 56.0365C126.116 55.2352 125.287 54.2381 124.793 53.0779C124.609 52.65 124.526 52.2403 124.497 51.8342C124.465 51.352 124.497 50.8662 124.497 50.3332L124.49 48.0925L124.479 45.7829L123.47 47.6755L121.299 43.854L120.156 41.8344L117.737 37.5524L114.978 32.6795L112.036 31.8528L108.387 31.9906C108.387 31.9906 108.574 33.1508 108.69 34.9564C108.762 36.1094 108.805 37.5271 108.758 39.0789C108.629 42.7771 107.958 47.2368 105.816 50.6885C105.448 51.2867 105.034 51.856 104.569 52.3854C103.786 53.4332 103.011 54.2852 102.268 54.9886C101.987 55.2497 101.713 55.4962 101.442 55.7138C100.743 56.2975 100.09 56.7471 99.5025 57.1097C97.3499 58.4476 96.1492 58.618 97.2418 59.6985V59.7021Z" fill="#DF8867"/>
<path d="M124.505 51.8379L124.479 45.7901L123.466 47.6828L121.299 43.8576L120.156 41.8381L111.2 37.4255C111.2 37.4255 112.415 50.2933 124.508 51.8379H124.505Z" fill="#1A1A1A"/>
<path d="M139.674 25.3808C139.674 25.4025 139.67 25.4279 139.667 25.4497C139.501 27.1719 139.021 28.9267 138.664 30.6127C138.159 32.9803 137.601 35.3334 136.948 37.6648C136.306 39.9563 135.585 42.2441 134.622 44.4195C133.955 45.9242 133.151 47.6428 131.821 48.6762C129.293 50.6377 123.636 49.7929 121.036 48.9481C113.031 46.3448 110.85 40.3442 110.158 33.6402C110.158 33.6402 103.844 29.4815 107.435 23.7854C108.521 22.0596 110.201 21.5194 111.928 22.6651C112.523 23.0603 113.046 23.5643 113.507 24.1045C113.893 24.5577 114.207 25.3917 114.214 25.9935C114.221 26.454 114.045 27.1356 114.82 27.1175C115.263 27.1066 115.624 26.7477 115.844 26.3633C116.763 24.7571 116.064 22.4548 117.301 21.0843C117.946 20.3664 119.01 20.0727 119.514 19.246C120.059 18.3541 119.846 16.9981 120.708 16.4107C121.137 16.117 121.699 16.1315 122.215 16.2004C124.241 16.4723 126.088 17.4259 127.84 18.4302C129.574 19.4237 131.402 20.2177 133.306 20.8377C135.105 21.4215 136.988 21.8856 138.866 21.6898C139.093 21.6644 139.346 21.639 139.53 21.7768C139.71 21.9146 139.753 22.1684 139.771 22.3932C139.858 23.3794 139.768 24.4018 139.67 25.3771L139.674 25.3808Z" fill="#DF8867"/>
<path d="M108.993 3.22754C111.967 3.31818 118.155 7.91562 112.31 4.23549C112.252 4.09772 112.195 3.96356 112.13 3.82941C111.636 2.81783 116.496 3.7859 116.979 4.80111C117.387 5.65679 114.408 4.94251 114.513 5.88158C114.567 6.3638 114.275 6.67562 113.918 6.78439C113.604 7.09983 113.038 7.1941 112.649 6.75538C111.61 5.5879 110.327 4.91713 108.766 4.83012C107.723 4.7721 107.976 3.19853 108.993 3.23116V3.22754Z" fill="#633420"/>
<path d="M107.348 45.5617C111.131 51.8596 124.508 59.9269 124.508 59.9269C124.508 59.9269 124.829 51.1381 125.125 50.6124C125.42 50.0866 131.164 55.3367 131.683 56.3845C132.206 57.4324 144.862 60.3221 147.08 61.631C149.297 62.9435 156.797 79.5965 158.751 89.3063C160.709 99.016 165.977 109.204 167.542 109.596C169.107 109.991 164.329 110.495 165.505 112.333L165.267 120.999C162.786 121.26 155.69 125.919 155.56 126.706C155.43 127.493 156.343 145.081 156.213 147.173C156.083 149.265 136.623 152.572 126.617 153.511C116.572 154.457 96.0374 156.161 92.9185 155.538C89.7996 154.914 90.582 147.579 89.9294 147.833C89.2767 148.09 84.3189 145.861 83.2732 144.022C82.2312 142.184 77.2698 136.938 76.8804 135.233C76.4873 133.529 76.0979 112.243 75.7049 99.4656C75.3119 86.6885 76.8804 73.8316 79.6207 71.3371C82.361 68.8426 100.757 53.6253 101.41 53.0996C102.063 52.5739 100.952 52.7733 101.605 50.5398C102.257 48.31 107.345 45.5544 107.345 45.5544L107.348 45.5617Z" fill="#E4F3F8"/>
<path d="M133.443 145.393C133.14 145.393 132.888 145.153 132.87 144.845C132.848 144.436 130.598 103.798 128.575 91.3765C126.877 80.9525 124.8 66.1921 124.14 61.4714C119.597 67.9614 118.872 67.559 118.389 67.287C117.506 66.7939 106.292 57.7151 100.985 52.2402C100.765 52.0118 100.768 51.6456 100.995 51.4244C101.223 51.2033 101.587 51.2069 101.807 51.4353C106.703 56.486 117.253 65.1152 118.807 66.1884C119.399 65.8295 121.13 63.8208 123.755 60.0102C123.938 59.7455 124.259 59.6259 124.566 59.6984C124.876 59.7709 125.103 60.0247 125.146 60.3438C125.586 63.5126 127.872 79.9046 129.711 91.1916C131.745 103.675 133.998 144.374 134.02 144.784C134.038 145.103 133.793 145.375 133.479 145.393C133.468 145.393 133.457 145.393 133.447 145.393H133.443Z" fill="#B7C6D6"/>
<path d="M128.597 64.7528C128.179 64.7528 127.104 64.354 124.047 60.275C123.856 60.0212 123.906 59.6587 124.158 59.4665C124.411 59.2743 124.771 59.3251 124.962 59.5789C126.156 61.1706 127.681 62.9327 128.384 63.4548C128.626 62.7768 129.159 61.3809 129.888 59.4846C130.389 58.1757 130.876 56.9031 131.143 56.1852C131.254 55.8843 131.586 55.7356 131.882 55.8444C132.181 55.9568 132.333 56.2867 132.221 56.5876C131.958 57.3055 131.464 58.5891 130.962 59.9016C130.263 61.7253 129.473 63.7956 129.361 64.1654C129.271 64.4736 129.037 64.6876 128.741 64.7419C128.705 64.7492 128.655 64.7564 128.593 64.7564L128.597 64.7528Z" fill="#B7C6D6"/>
<path d="M89.9296 148.417C89.8539 148.417 89.7782 148.402 89.7024 148.37C89.4104 148.243 89.277 147.902 89.4032 147.612C89.7169 146.879 97.1194 129.958 111.488 128.312C110.731 126.891 108.784 123.813 105.842 123.073C102.243 122.166 97.7359 124.266 90.2938 130.31C83.8071 135.578 83.5007 143.417 83.497 143.497C83.4862 143.808 83.2338 144.059 82.9237 144.059C82.9201 144.059 82.9129 144.059 82.9057 144.059C82.5884 144.048 82.3396 143.783 82.3468 143.464C82.3576 143.123 82.6569 135.023 89.569 129.411C97.3285 123.109 102.117 120.945 106.119 121.953C110.522 123.058 112.808 128.359 112.901 128.584L113.215 129.331L112.411 129.389C98.1938 130.4 90.5317 147.895 90.456 148.072C90.3623 148.29 90.1495 148.42 89.9296 148.42V148.417Z" fill="#B7C6D6"/>
<path d="M102.647 122.877C102.333 122.877 102.077 122.623 102.074 122.308L102.045 119.944C101.879 105.872 101.677 88.3636 94.5305 82.6856C94.2817 82.4862 94.2384 82.1237 94.4367 81.8735C94.6314 81.6233 94.9956 81.5798 95.2444 81.7792C102.82 87.7979 103.018 104.868 103.195 119.929L103.224 122.29C103.227 122.609 102.975 122.87 102.658 122.877H102.65H102.647Z" fill="#B7C6D6"/>
<path d="M100.974 95.5461H100.963C100.646 95.5425 100.393 95.2778 100.397 94.9587C100.397 94.85 100.53 83.951 97.1158 75.8982C96.9932 75.6045 97.1266 75.2637 97.4187 75.1404C97.7143 75.0172 98.0497 75.1513 98.1722 75.445C101.684 83.7298 101.554 94.52 101.547 94.9769C101.544 95.2923 101.284 95.5461 100.974 95.5461Z" fill="#B7C6D6"/>
<path d="M156.732 146.966C156.429 146.966 156.177 146.731 156.159 146.423C156.137 146.013 153.776 105.357 150.426 85.4159C150.372 85.1005 150.585 84.8031 150.898 84.7488C151.212 84.698 151.508 84.9083 151.562 85.2237C154.919 105.227 157.288 145.948 157.309 146.357C157.327 146.676 157.086 146.948 156.768 146.966C156.757 146.966 156.747 146.966 156.736 146.966H156.732Z" fill="#B7C6D6"/>
<path d="M148.381 73.4944C148.118 73.4944 147.88 73.3095 147.819 73.0412C147.804 72.9723 146.24 66.029 143.002 61.8558C142.807 61.6056 142.85 61.2394 143.099 61.0436C143.351 60.8478 143.712 60.8913 143.907 61.1451C147.307 65.5286 148.875 72.4937 148.94 72.791C149.009 73.1028 148.814 73.411 148.504 73.4799C148.461 73.4908 148.421 73.4944 148.378 73.4944H148.381Z" fill="#B7C6D6"/>
<path d="M154.504 116.43C154.407 116.43 154.309 116.405 154.219 116.354C153.945 116.195 153.848 115.843 154.006 115.567C154.115 115.379 156.693 110.963 162.873 109.614C163.183 109.545 163.489 109.744 163.558 110.056C163.626 110.368 163.428 110.676 163.118 110.745C157.457 111.982 155.027 116.104 155.005 116.144C154.897 116.329 154.706 116.434 154.508 116.434L154.504 116.43Z" fill="#B7C6D6"/>
<path d="M93.9355 159.272C93.5858 159.272 93.236 159.272 92.8863 159.272C92.3526 159.272 91.9163 158.833 91.9199 158.297L91.9308 156.074C91.9308 155.538 92.3707 155.11 92.9043 155.11C133.194 155.211 152.243 149.127 156.3 147.633C156.779 147.456 157.306 147.688 157.511 148.156L158.409 150.2C158.632 150.712 158.391 151.303 157.872 151.498C153.595 153.126 134.727 159.276 93.9427 159.276L93.9355 159.272Z" fill="#B25B3B"/>
<path d="M148.829 379.391C148.829 381.207 174.728 381.599 209.649 381.599C257.172 381.599 269.558 380.127 269.558 378.307C269.558 376.49 259.693 375.921 209.981 375.921C175.06 375.921 148.829 377.571 148.829 379.391Z" fill="#877798"/>
<path d="M191.487 368.593C191.487 368.593 188.527 351.531 188.34 345.2C188.156 338.873 190.189 319.7 189.822 300.716C189.45 281.732 160.208 279.872 160.208 279.872C160.208 279.872 170.048 332.916 171.422 342.035C172.795 351.154 174.09 359.903 172.424 364.928C170.758 369.953 183.713 376.084 187.6 375.439C191.487 374.793 191.487 368.59 191.487 368.59V368.593Z" fill="#E8A56D"/>
<path d="M172.868 352.829C174.84 353.438 176.849 353.92 178.886 354.232C182.318 354.758 185.845 354.794 189.245 354.116C190.175 361.037 191.488 368.593 191.488 368.593C191.488 368.593 191.488 374.793 187.601 375.442C183.714 376.088 170.759 369.957 172.424 364.931C173.409 361.965 173.355 357.698 172.868 352.829Z" fill="#E4E8EA"/>
<path d="M190.936 365.305C190.936 365.305 189.951 369.503 187.716 369.851C185.48 370.196 183.757 368.448 182.552 365.345C181.348 362.237 177.501 360.261 172.997 360.134C170.704 360.069 167.293 365.243 161.185 368.865C156.202 371.817 150.541 372.97 150.198 374.355C149.856 375.74 149.51 379.238 151.576 379.391C153.642 379.543 172.049 379.024 181.431 379.024C190.813 379.024 191.675 378.506 192.533 376.429C193.395 374.351 192.93 365.642 190.936 365.305Z" fill="#F4B442"/>
<path d="M184.132 375.446C187.1 375.319 190.02 375.036 192.883 374.29C192.854 374.844 192.804 375.341 192.724 375.747C190.42 376.309 188.066 376.603 185.686 376.741C182.535 376.925 179.376 377.005 176.225 377.121C169.839 377.353 163.453 377.542 157.064 377.549C154.71 377.549 152.359 377.527 150.008 377.477C149.939 377.031 149.925 376.556 149.95 376.099C161.344 376.353 172.752 375.936 184.132 375.443V375.446Z" fill="#D79B38"/>
<path d="M248.778 365.773C248.778 365.773 246.402 363.177 245.887 355.736C245.371 348.296 245.025 293.261 243.305 291.88C241.585 290.495 222.825 294.302 220.759 295.861C218.693 297.42 220.932 313.511 222.136 321.647C223.34 329.78 228.587 348.471 229.232 353.318C229.881 358.162 231.042 367.567 231.042 367.567C231.042 367.567 230.036 373.738 234.348 375.297C238.657 376.856 248.778 365.78 248.778 365.78V365.773Z" fill="#E8A56D"/>
<path d="M229.037 352.133C229.787 352.245 230.541 352.346 231.298 352.43C233.93 352.72 236.591 352.829 239.23 352.611C241.433 352.43 243.629 352.02 245.706 351.255C245.764 353.3 245.825 354.852 245.886 355.733C246.402 363.173 248.778 365.769 248.778 365.769C248.778 365.769 238.661 376.846 234.348 375.287C230.039 373.727 231.042 367.556 231.042 367.556C231.042 367.556 229.881 358.151 229.232 353.307C229.189 352.977 229.12 352.579 229.037 352.125V352.133Z" fill="#E4E8EA"/>
<path d="M267.542 376.69C267.25 377.513 266.497 378.078 265.631 378.118C260.706 378.354 243.828 379.083 241.336 378.049C238.412 376.838 237.035 377.357 232.729 377.357C228.428 377.357 228.727 374.942 228.983 372.683C229.228 370.522 227.963 365.298 230.717 364.96C230.717 364.96 231.305 368.593 232.899 369.569C234.871 370.776 237.716 367.821 238.924 364.888C240.128 361.955 244.679 360.918 247.394 360.918C253.206 360.918 259.401 368.452 263.19 370.609C266.612 372.56 268.909 372.821 267.542 376.69Z" fill="#F4B442"/>
<path d="M235.131 374.304C233.447 374.242 231.759 374.22 230.083 374.032C229.679 373.985 229.275 373.93 228.871 373.872C228.893 373.481 228.94 373.082 228.986 372.683C228.994 372.629 228.997 372.571 229.001 372.513C229.069 372.524 229.142 372.534 229.21 372.545C232.506 373.009 235.845 372.766 239.129 373.314C242.356 373.854 245.49 374.891 248.764 375.141C252.149 375.399 255.582 375.17 258.975 375.094C261.964 375.025 264.95 374.96 267.939 374.891C267.921 375.286 267.831 375.747 267.672 376.273C265.188 376.327 262.703 376.385 260.219 376.439C256.779 376.515 253.318 376.719 249.878 376.577C246.546 376.439 243.38 375.558 240.132 374.895C238.477 374.554 236.822 374.362 235.131 374.3V374.304Z" fill="#D79B38"/>
<path d="M169.507 94.7377C169.507 94.7377 156.076 96.2641 146.647 111.478C141.343 120.034 138.852 131.771 136.331 142.985C134.099 152.924 130.541 156.992 130.281 161.234C129.733 170.258 134.42 179.504 140.052 180.421C148.659 181.821 158.899 176.676 161.86 173.278C161.86 173.278 151.919 201.94 151.143 221.28C150.368 240.619 147.837 310.962 148.071 315.643C148.071 315.643 159.213 321.201 183.176 323.42C183.678 323.467 185.787 317.108 186.299 317.151C186.559 317.173 186.169 323.674 186.429 323.692C190.947 324.058 194.931 324.225 200.314 324.298C236.144 324.765 252.896 318.214 253.596 315.875C254.295 313.537 244.289 279.143 243.824 275.401C243.359 271.659 248.245 235.862 247.08 213.169C245.915 190.475 240.334 170.588 240.334 170.588C240.334 170.588 249.709 172.695 253.632 160.295C257.551 147.895 249.64 141.343 247.314 135.263C244.989 129.179 240.539 109.106 233.818 101.808C219.392 86.1338 204.922 92.2178 196.51 90.2345C188.102 88.2512 169.507 94.7377 169.507 94.7377Z" fill="#5FB3AD"/>
<path d="M161.863 173.278C166.395 168.369 171.667 163.01 172.046 162.401C172.54 161.614 169.731 153.674 171.032 153.043C172.334 152.412 177.569 150.679 181.063 150.364C184.557 150.048 190.889 150.995 193.806 152.728C196.723 154.461 213.616 162.499 223.802 166.596C233.988 170.693 240.334 170.588 240.334 170.588C240.334 170.588 241.123 173.405 242.173 178.13C239.782 177.637 236.476 176.926 231.94 175.893C218.761 172.898 188.228 161.553 182.419 162.496C179.077 163.039 168.58 171.255 160.273 178.133C161.063 175.624 161.69 173.782 161.863 173.271V173.278Z" fill="#338A80"/>
<path d="M194.275 131.775C199.997 132.184 205.553 133.667 211.088 135.11L221.062 137.714C220.888 137.162 220.795 136.579 220.697 135.991C220.477 134.697 217.596 121.035 217.376 119.741C217.315 119.375 217.474 119.001 217.852 118.896C218.181 118.805 218.631 119.008 218.693 119.375L221.97 135.368C222.122 136.263 222.165 137.427 222.771 138.16C224.573 138.631 226.373 139.099 228.176 139.57C231.388 140.408 234.601 141.249 237.814 142.086C238.664 142.307 238.304 143.634 237.449 143.413C231.828 141.945 226.203 140.476 220.582 139.012C215.015 137.558 209.462 136.006 203.859 134.704C200.7 133.972 197.509 133.381 194.275 133.149C193.402 133.087 193.395 131.709 194.275 131.775Z" fill="#338A80"/>
<path d="M159.091 137.775C159.321 136.756 159.689 135.777 159.97 134.777C160.27 133.707 160.399 132.645 160.389 131.535C160.363 129.008 160.071 126.47 159.891 123.95C159.83 123.069 161.196 123.073 161.258 123.95C161.413 126.111 161.596 128.276 161.715 130.44C161.77 131.452 161.777 132.46 161.643 133.464C161.503 134.497 161.193 135.484 160.883 136.474C160.349 138.17 160.032 139.853 160.111 141.637C160.183 143.265 160.551 144.892 161.178 146.397C161.907 148.148 162.999 149.726 164.376 151.024C165.018 151.629 164.052 152.601 163.41 151.995C160.89 149.617 159.303 146.365 158.856 142.927C158.636 141.212 158.705 139.468 159.091 137.779V137.775Z" fill="#338A80"/>
<path d="M136.198 158.286C141.296 155.211 146.535 152.39 151.9 149.816C149.29 150.139 146.697 150.599 144.13 151.198C143.276 151.397 142.908 150.074 143.766 149.871C147.602 148.975 151.5 148.384 155.423 148.087C155.481 148.083 155.535 148.087 155.585 148.094C156.8 147.543 158.019 146.999 159.249 146.473C159.591 146.328 159.977 146.372 160.183 146.72C160.352 147.006 160.276 147.514 159.937 147.659C151.994 151.056 144.289 155.005 136.886 159.472C136.129 159.928 135.44 158.739 136.198 158.286Z" fill="#338A80"/>
<path d="M158.25 110.872C158.517 113.523 159.051 116.137 159.923 118.649C160.118 119.208 159.238 119.447 159.044 118.892C156.924 112.805 156.931 106.423 157.212 100.049C157.522 99.8281 157.832 99.6178 158.142 99.4111C157.966 103.233 157.865 107.054 158.25 110.868V110.872Z" fill="#338A80"/>
<path d="M216.673 106.583C216.378 109.005 216.194 111.438 216.118 113.874C216.1 114.462 215.188 114.465 215.206 113.874C215.437 106.478 216.684 99.1211 218.905 92.0654C219.194 92.1524 219.482 92.2395 219.771 92.3374C218.307 96.9783 217.261 101.753 216.67 106.583H216.673Z" fill="#338A80"/>
<path d="M186.887 123.519C186.959 122.942 187.871 122.935 187.799 123.519C186.659 132.597 185.888 141.72 185.495 150.86C185.47 151.448 184.557 151.451 184.583 150.86C184.979 141.72 185.747 132.597 186.887 123.519Z" fill="#338A80"/>
<path d="M183.018 195.083C182.387 183.681 182.481 172.209 184.244 160.9C184.334 160.32 185.217 160.552 185.127 161.132C181.954 181.516 184.316 202.168 186.274 222.545C187.258 232.777 188.102 243.012 188.246 253.295C188.394 263.762 188.069 274.233 187.86 284.697C187.622 296.568 187.384 308.439 187.15 320.313C187.139 320.9 186.227 320.915 186.238 320.324C186.45 309.726 186.663 299.124 186.872 288.526C187.085 277.95 187.406 267.37 187.366 256.794C187.327 246.482 186.642 236.221 185.686 225.957C184.727 215.67 183.591 205.399 183.021 195.083H183.018Z" fill="#338A80"/>
<path d="M188.188 126.927C188.181 126.851 188.196 126.775 188.21 126.699C188.221 126.641 188.242 126.593 188.264 126.539C188.289 126.481 188.311 126.427 188.343 126.376C188.383 126.318 188.426 126.26 188.473 126.205C188.509 126.166 188.556 126.129 188.599 126.104C188.625 126.089 188.646 126.082 188.672 126.068C188.7 126.057 188.726 126.042 188.751 126.035C188.891 126.002 189.039 126.021 189.165 126.097C189.263 126.155 189.328 126.231 189.389 126.321C189.44 126.39 189.483 126.466 189.519 126.546C189.551 126.615 189.587 126.691 189.602 126.767C189.616 126.84 189.631 126.92 189.627 126.992C189.623 127.061 189.616 127.134 189.595 127.203C189.573 127.268 189.544 127.34 189.504 127.398C189.403 127.54 189.274 127.659 189.097 127.696C188.92 127.732 188.733 127.71 188.581 127.609C188.477 127.54 188.426 127.482 188.354 127.384C188.34 127.366 188.333 127.34 188.322 127.319C188.304 127.293 188.279 127.268 188.268 127.242C188.21 127.126 188.192 127.05 188.181 126.92L188.188 126.927Z" fill="#338A80"/>
<path d="M185.935 166.614C185.953 166.527 185.992 166.437 186.039 166.361C186.111 166.245 186.194 166.165 186.306 166.089C186.378 166.041 186.465 166.005 186.548 165.991C186.685 165.965 186.785 165.965 186.923 165.991C186.948 165.994 186.973 166.002 186.998 166.012C187.056 166.034 187.117 166.056 187.168 166.092C187.272 166.161 187.359 166.241 187.42 166.35C187.438 166.379 187.449 166.408 187.46 166.44C187.471 166.469 187.485 166.498 187.492 166.527C187.507 166.589 187.517 166.658 187.517 166.723C187.517 166.738 187.514 166.752 187.51 166.767C187.521 166.825 187.528 166.883 187.525 166.941C187.514 167.078 187.489 167.191 187.42 167.31C187.359 167.427 187.265 167.514 187.157 167.586C187.106 167.619 187.049 167.64 186.991 167.662C186.962 167.673 186.937 167.684 186.908 167.688C186.771 167.709 186.659 167.717 186.522 167.688C186.31 167.64 186.108 167.477 186.01 167.281C185.981 167.22 185.953 167.158 185.935 167.093C185.917 167.028 185.909 166.959 185.902 166.894C185.891 166.799 185.906 166.701 185.927 166.614H185.935Z" fill="#338A80"/>
<path d="M185.408 201.766C185.426 201.679 185.466 201.588 185.513 201.512C185.585 201.396 185.668 201.316 185.78 201.24C185.852 201.193 185.938 201.157 186.021 201.142C186.158 201.117 186.259 201.117 186.396 201.142C186.421 201.146 186.447 201.153 186.472 201.164C186.53 201.186 186.591 201.207 186.641 201.244C186.746 201.313 186.832 201.392 186.894 201.501C186.912 201.53 186.923 201.559 186.933 201.592C186.944 201.621 186.959 201.65 186.966 201.679C186.98 201.74 186.991 201.809 186.991 201.874C186.991 201.889 186.988 201.903 186.984 201.918C186.995 201.976 187.002 202.034 186.998 202.092C186.987 202.23 186.962 202.342 186.894 202.462C186.832 202.578 186.739 202.665 186.631 202.737C186.58 202.77 186.519 202.792 186.465 202.814C186.436 202.824 186.411 202.832 186.382 202.839C186.245 202.861 186.133 202.868 185.996 202.839C185.783 202.792 185.581 202.629 185.484 202.433C185.455 202.371 185.426 202.31 185.408 202.244C185.39 202.179 185.383 202.11 185.376 202.045C185.365 201.951 185.379 201.853 185.401 201.766H185.408Z" fill="#338A80"/>
<path d="M188.902 241.308C188.92 241.221 188.96 241.131 189.007 241.054C189.079 240.938 189.162 240.859 189.274 240.782C189.346 240.735 189.432 240.699 189.515 240.685C189.652 240.659 189.753 240.659 189.89 240.685C189.916 240.688 189.941 240.695 189.966 240.706C190.024 240.728 190.085 240.75 190.135 240.786C190.24 240.855 190.327 240.935 190.388 241.044C190.406 241.073 190.417 241.102 190.428 241.134C190.438 241.163 190.453 241.192 190.46 241.221C190.474 241.283 190.485 241.352 190.485 241.417C190.485 241.431 190.482 241.446 190.478 241.46C190.489 241.518 190.496 241.576 190.492 241.635C190.482 241.772 190.456 241.885 190.388 242.004C190.327 242.12 190.233 242.207 190.125 242.28C190.074 242.313 190.017 242.334 189.959 242.356C189.93 242.367 189.905 242.378 189.876 242.381C189.739 242.403 189.631 242.41 189.49 242.381C189.277 242.334 189.075 242.171 188.978 241.975C188.949 241.914 188.92 241.852 188.902 241.787C188.884 241.722 188.877 241.653 188.87 241.587C188.859 241.493 188.873 241.395 188.895 241.308H188.902Z" fill="#338A80"/>
<path d="M188.902 279.211C188.92 279.124 188.96 279.034 189.007 278.958C189.079 278.842 189.162 278.762 189.274 278.686C189.346 278.639 189.432 278.602 189.515 278.588C189.652 278.563 189.753 278.563 189.89 278.588C189.916 278.592 189.941 278.599 189.966 278.61C190.024 278.631 190.085 278.653 190.135 278.689C190.24 278.758 190.327 278.838 190.388 278.947C190.406 278.976 190.417 279.005 190.428 279.037C190.438 279.066 190.453 279.095 190.46 279.124C190.474 279.186 190.485 279.255 190.485 279.32C190.485 279.335 190.482 279.349 190.478 279.364C190.489 279.422 190.496 279.48 190.492 279.538C190.482 279.676 190.456 279.788 190.388 279.908C190.327 280.024 190.233 280.111 190.125 280.183C190.074 280.216 190.017 280.238 189.959 280.259C189.93 280.27 189.905 280.281 189.876 280.285C189.739 280.306 189.631 280.314 189.49 280.285C189.277 280.238 189.075 280.074 188.978 279.879C188.949 279.817 188.92 279.755 188.902 279.69C188.884 279.625 188.877 279.556 188.87 279.491C188.859 279.396 188.873 279.299 188.895 279.211H188.902Z" fill="#338A80"/>
<path d="M188.902 316.06C188.92 315.973 188.96 315.882 189.007 315.806C189.079 315.69 189.162 315.611 189.274 315.534C189.346 315.487 189.432 315.451 189.515 315.437C189.652 315.411 189.753 315.411 189.89 315.437C189.916 315.44 189.941 315.447 189.966 315.458C190.024 315.48 190.085 315.502 190.135 315.538C190.24 315.607 190.327 315.687 190.388 315.795C190.406 315.824 190.417 315.853 190.428 315.886C190.438 315.915 190.453 315.944 190.46 315.973C190.474 316.035 190.485 316.104 190.485 316.169C190.485 316.183 190.482 316.198 190.478 316.212C190.489 316.27 190.496 316.328 190.492 316.386C190.482 316.524 190.456 316.637 190.388 316.756C190.327 316.872 190.233 316.959 190.125 317.032C190.074 317.064 190.017 317.086 189.959 317.108C189.93 317.119 189.905 317.13 189.876 317.133C189.739 317.155 189.631 317.162 189.49 317.133C189.277 317.086 189.075 316.923 188.978 316.727C188.949 316.666 188.92 316.604 188.902 316.539C188.884 316.473 188.877 316.405 188.87 316.339C188.859 316.245 188.873 316.147 188.895 316.06H188.902Z" fill="#338A80"/>
<path d="M194.765 89.1901C194.823 88.9544 194.96 88.7115 195.147 88.5556C195.403 88.3417 195.71 88.2583 196.038 88.3308C196.517 88.4396 196.878 88.8928 196.943 89.375C197.058 89.7448 196.936 90.1691 196.69 90.4627C196.355 90.8616 195.728 90.916 195.313 90.6114C194.87 90.2851 194.632 89.734 194.765 89.1901Z" fill="#FFF1E0"/>
<path d="M154.857 62.9363C155.546 61.7797 156.462 60.779 157.543 59.9922C157.28 57.7986 157.533 55.5688 158.531 53.5638C160.731 49.1404 165.717 46.9287 170.264 46.8018C173.899 46.7002 176.394 48.321 176.607 48.4297C177.753 47.0628 179.538 46.2398 181.326 46.3558C182.185 46.4102 182.999 46.6712 183.731 47.0773C184.82 46.276 186.093 45.5618 187.438 45.5545C190.553 45.54 193.607 47.8206 194.949 50.5544C195.378 51.4246 195.655 52.3455 195.796 53.2846C196.496 53.3934 197.188 53.5493 197.869 53.7596C201.666 54.9416 204.958 57.795 206.519 61.4896C208.03 65.061 207.659 69.256 205.535 72.5046C204.461 74.1471 203.062 75.2711 201.381 76.2319C200.815 76.5546 200.422 76.899 200.566 77.6097C200.678 78.1535 200.858 78.6648 200.923 79.2195C201.032 80.1658 200.923 81.1411 200.631 82.0476C199.964 84.1143 198.381 85.793 196.294 86.4166C194.826 86.8553 193.258 86.7683 191.859 86.2244C188.92 88.5957 184.64 88.6936 181.622 86.2825C180.836 85.6552 180.162 84.8829 179.65 84.0127C179.419 83.6212 179.235 83.2078 179.066 82.7872C178.976 82.5661 178.889 82.305 178.734 82.1129C178.5 81.8192 178.204 81.8735 177.872 81.9098C175.972 82.1165 174.086 81.4965 172.579 80.3362C171.155 79.2376 170.134 77.6967 169.738 75.96C168.894 76.9752 167.892 77.9215 166.554 78.1028C165.833 78.2007 165.097 78.0629 164.499 77.7148C164.448 77.7692 164.391 77.82 164.304 77.849C162.717 78.4146 160.969 77.6713 159.941 76.3987C158.791 74.9738 158.589 73.0594 158.69 71.2828C157.139 70.9601 156.072 69.6657 155.549 68.1755C155.236 67.2799 155.041 66.2792 155.005 65.3257C154.994 65.0537 155.012 64.7927 155.052 64.5389C154.403 66.0399 154.158 67.6969 154.5 69.3031C154.695 70.2204 155.106 70.9564 155.838 71.5438C156.144 71.7867 156.44 72.0478 156.563 72.4358C156.696 72.8527 156.588 73.2769 156.545 73.6975C156.328 75.6772 156.891 77.6387 158.059 79.234C158.405 79.709 157.615 80.1658 157.273 79.6981C156.332 78.4073 155.769 76.8882 155.621 75.2965C155.585 74.923 155.578 74.5423 155.596 74.1689C155.614 73.7555 155.755 73.3059 155.722 72.8962C155.69 72.4793 155.279 72.2762 154.994 72.0333C154.706 71.7867 154.46 71.4931 154.259 71.174C152.733 68.7592 153.487 65.235 154.853 62.9327L154.857 62.9363Z" fill="#D8D6D0"/>
<path d="M194.729 131.158C192.869 131.967 188.163 122.529 186.934 121.851C185.704 121.173 182.322 131.441 181.482 131.753C180.642 132.065 175.172 127.652 171.801 123.283C168.426 118.914 162.624 107.42 163.518 101.674C163.929 99.0413 165.217 96.942 166.497 95.4337C168.354 94.8681 169.507 94.7375 169.507 94.7375C169.507 94.7375 188.102 88.2547 196.51 90.2344C198.147 90.6187 200.015 90.6985 202.067 90.6948C204.501 92.2031 206.895 94.0051 207.915 95.8035C210.086 99.625 210.396 105.861 207.45 112.881C204.504 119.9 196.593 130.35 194.733 131.158H194.729Z" fill="#FFF1E0"/>
<path d="M171.573 93.2328C171.573 93.2328 166.06 95.9557 168.454 104.523C170.372 111.394 184.687 121.089 186.886 121.089C189.086 121.089 199.229 108.994 202.34 103.283C205.456 97.5728 202.157 92.417 200.325 91.681C198.493 90.945 195.338 91.1299 193.802 86.1554C192.266 81.1809 171.569 93.2328 171.569 93.2328H171.573Z" fill="#E8A56D"/>
<path d="M193.572 81.9424C193.572 81.9424 195.028 94.2481 190.683 100.412C186.339 106.579 174.407 106.108 171.296 96.9856C168.184 87.8668 193.572 81.9424 193.572 81.9424Z" fill="#9D6741"/>
<path d="M162.389 86.3548C162.483 86.2424 164.661 83.6319 165.04 83.0336L164.65 82.7834C164.29 83.3563 162.058 86.0285 162.036 86.0539L162.389 86.3512V86.3548Z" fill="#FFF1E0"/>
<path d="M193.398 89.484C193.398 89.484 190.781 100.133 182.527 100.891C174.274 101.652 167.719 95.0168 164.16 84.6545C161.639 77.3124 161.852 73.266 162.707 70.1225C163.381 67.6389 165.058 67.2002 165.058 67.2002C165.058 67.2002 168.515 68.9369 171.108 67.744C173.7 66.5475 174.71 64.8978 176.982 64.8616C180.858 64.7999 183.162 67.0914 184.348 69.1436C186.699 73.2153 189.782 72.8346 189.782 72.8346C189.782 72.8346 190.178 66.8557 194.152 67.6461C197.372 68.2843 197.502 72.86 197.285 76.5546C197.069 80.2492 194.585 80.6843 194.585 80.6843C194.585 80.6843 194.228 87.062 193.395 89.484H193.398Z" fill="#E8A56D"/>
<path d="M163.969 75.0064C165.235 74.6003 166.507 74.1979 167.827 74.0202C168.469 73.9332 169.111 73.9078 169.756 73.9477C170.398 73.9876 171.04 74.0673 171.682 74.0238C172.915 73.9404 173.791 73.1573 174.746 72.4611C175.68 71.7795 176.74 71.3335 177.887 71.1812C178.529 71.0979 179.167 71.1196 179.805 71.2139C180.508 71.3154 181.28 71.4967 181.954 71.1776C182.217 71.0543 182.448 71.4496 182.185 71.5728C181.067 72.0986 179.848 71.5728 178.684 71.5837C177.472 71.5946 176.286 71.968 175.28 72.6424C174.35 73.266 173.524 74.1072 172.403 74.3755C171.152 74.6728 169.85 74.3211 168.581 74.4009C167.037 74.4988 165.552 74.981 164.088 75.4487C163.807 75.5394 163.688 75.097 163.965 75.0064H163.969Z" fill="#D7915C"/>
<path d="M164.211 72.3739C165.876 71.4638 167.813 71.8409 169.619 71.7467C170.575 71.6959 171.476 71.4783 172.255 70.8982C172.666 70.5937 173.048 70.2565 173.506 70.0281C173.932 69.8141 174.386 69.6727 174.855 69.5857C175.954 69.3863 177.072 69.4661 178.179 69.5676C178.468 69.593 178.471 70.0534 178.179 70.0244C177.216 69.9374 176.243 69.8576 175.28 69.9809C174.779 70.0426 174.278 70.1695 173.82 70.3834C173.369 70.5937 172.994 70.9055 172.601 71.2064C171.88 71.7612 171.076 72.0512 170.178 72.16C169.277 72.2688 168.364 72.2107 167.459 72.2071C166.428 72.2071 165.368 72.2688 164.441 72.7727C164.185 72.9141 163.955 72.5189 164.211 72.3775V72.3739Z" fill="#D7915C"/>
<path d="M185.506 80.4414H187.262C187.554 80.4414 187.554 80.8982 187.262 80.8982H185.506C185.214 80.8982 185.214 80.4414 185.506 80.4414Z" fill="#D7915C"/>
<path d="M185.091 81.4893C185.855 81.4929 186.612 81.6452 187.316 81.9425C187.427 81.9896 187.51 82.0948 187.474 82.2253C187.445 82.3341 187.308 82.432 187.193 82.3848C186.526 82.102 185.812 81.9533 185.087 81.9497C184.795 81.9497 184.795 81.4893 185.087 81.4929L185.091 81.4893Z" fill="#D7915C"/>
<path d="M173.282 77.6931C173.416 77.6931 173.499 77.7982 173.509 77.9215C173.571 78.6684 173.758 79.4081 174.061 80.0933C174.112 80.2057 174.093 80.3399 173.978 80.4051C173.881 80.4631 173.715 80.4378 173.668 80.3217C173.329 79.5567 173.124 78.7518 173.051 77.9179C173.041 77.7946 173.163 77.6895 173.279 77.6895L173.282 77.6931Z" fill="#D7915C"/>
<path d="M171.364 76.6923C171.479 76.6234 171.602 76.6742 171.674 76.7757C172.049 77.2797 172.309 77.8706 172.424 78.4907C172.446 78.6103 172.392 78.7372 172.265 78.7735C172.154 78.8025 172.009 78.7372 171.984 78.6139C171.872 78.0266 171.638 77.4899 171.281 77.0113C171.205 76.9135 171.267 76.7539 171.364 76.6995V76.6923Z" fill="#D7915C"/>
<path d="M192.894 102.188C192.962 101.898 193.074 101.579 193.305 101.38C193.539 101.177 193.853 101.054 194.166 101.086C194.177 101.086 194.184 101.09 194.195 101.094C194.062 101.003 193.943 100.894 193.856 100.756C193.647 100.423 193.73 99.9949 193.936 99.6831C193.936 99.6686 193.936 99.6504 193.939 99.6359C194.004 99.306 194.264 98.9579 194.595 98.86C194.455 98.7404 194.347 98.5881 194.278 98.4104C194.134 98.0261 194.296 97.6092 194.545 97.3155C194.552 97.3082 194.559 97.3046 194.563 97.2973C194.754 97.0363 195.053 96.8478 195.371 96.8296C195.158 96.7245 194.996 96.5504 194.906 96.322C194.902 96.3111 194.898 96.3003 194.895 96.2894C194.833 96.206 194.783 96.119 194.751 96.0247C194.614 95.6114 194.823 95.14 195.165 94.8862C195.266 94.7738 195.396 94.6832 195.54 94.6288C195.605 94.6034 195.674 94.5889 195.738 94.5853C195.757 94.578 195.775 94.5744 195.793 94.5708C195.501 94.4838 195.248 94.2989 195.115 94.0088C194.949 93.6426 194.938 93.2184 195.144 92.8631C195.245 92.6854 195.407 92.5259 195.594 92.4389C195.659 92.4098 195.724 92.3881 195.789 92.37C195.764 92.3555 195.735 92.3482 195.71 92.3301C195.324 92.0944 195.061 91.6412 195.079 91.1807C195.097 90.6949 195.396 90.2924 195.836 90.1075C196.276 89.9226 196.795 89.9951 197.138 90.3395C197.505 90.7057 197.613 91.3258 197.318 91.7717C197.282 91.8225 197.246 91.8732 197.206 91.9167C197.199 91.9313 197.195 91.9494 197.184 91.9639C197.076 92.1633 196.896 92.3265 196.687 92.4171C196.77 92.4642 196.845 92.5222 196.914 92.5839C197.065 92.7253 197.163 92.8993 197.235 93.0915C197.311 93.2873 197.311 93.4939 197.282 93.697C197.253 93.8964 197.148 94.0704 197.022 94.2227C196.856 94.4185 196.6 94.5563 196.337 94.6034C196.651 94.7231 196.9 95.0095 196.957 95.3576C197.019 95.5207 197.047 95.6984 197.026 95.8761C196.997 96.1371 196.907 96.3547 196.734 96.5504C196.73 96.5577 196.719 96.5613 196.716 96.5649C196.626 96.6773 196.51 96.7789 196.384 96.8405C196.254 96.9021 196.11 96.9493 195.962 96.942C195.951 96.942 195.944 96.9348 195.933 96.9348C195.926 96.9348 195.922 96.9348 195.915 96.9348C195.966 96.9565 196.016 96.9892 196.067 97.029C196.168 97.1088 196.243 97.2103 196.308 97.3191C196.341 97.3626 196.377 97.4025 196.406 97.4496C196.589 97.7651 196.68 98.182 196.546 98.5337C196.395 98.9253 196.07 99.2117 195.645 99.2335C195.717 99.3205 195.778 99.4148 195.829 99.5127C195.998 99.7447 196.099 100.031 196.074 100.321C196.038 100.687 195.854 101.003 195.547 101.21C195.378 101.322 195.165 101.373 194.96 101.369C194.956 101.369 194.952 101.369 194.945 101.369C194.963 101.384 194.989 101.391 195.007 101.413C195.208 101.663 195.345 101.964 195.338 102.294C195.338 102.399 195.313 102.5 195.284 102.598C195.263 102.729 195.226 102.859 195.154 102.972C195.064 103.117 194.949 103.225 194.808 103.323C194.559 103.497 194.224 103.548 193.932 103.476C193.856 103.457 193.781 103.425 193.708 103.389C193.539 103.378 193.37 103.341 193.229 103.251C193.056 103.138 192.919 102.972 192.872 102.765C192.829 102.576 192.847 102.388 192.89 102.203L192.894 102.188Z" fill="#FFF1E0"/>
<path d="M173.776 99.0559C173.877 98.7477 174.112 98.5192 174.418 98.4177C174.728 98.3126 175.085 98.4177 175.309 98.6534C175.424 98.773 175.5 98.9108 175.554 99.0667C175.572 99.1247 175.579 99.1828 175.59 99.2444C175.597 99.3097 175.608 99.3749 175.601 99.4402C175.586 99.5925 175.554 99.7194 175.493 99.8535C175.467 100.006 175.385 100.154 175.28 100.252C175.136 100.387 174.945 100.47 174.746 100.463C174.393 100.452 174.087 100.227 173.906 99.9333C173.751 99.6795 173.69 99.3423 173.784 99.0559H173.776Z" fill="#FFF1E0"/>
<path d="M174.299 100.557C174.411 100.463 174.526 100.387 174.67 100.35C174.815 100.314 174.952 100.318 175.096 100.343C175.341 100.39 175.547 100.557 175.687 100.756C175.727 100.811 175.748 100.88 175.774 100.941C175.788 100.977 175.799 101.014 175.806 101.05C175.831 101.199 175.835 101.329 175.799 101.478C175.792 101.51 175.777 101.536 175.763 101.568C175.763 101.692 175.727 101.826 175.665 101.931C175.601 102.051 175.496 102.145 175.373 102.21C175.467 102.188 175.568 102.174 175.662 102.178C175.878 102.192 176.073 102.257 176.246 102.388C176.459 102.551 176.574 102.787 176.596 103.055C176.607 103.2 176.567 103.363 176.491 103.487C176.48 103.505 176.466 103.512 176.455 103.526C176.516 103.512 176.578 103.501 176.639 103.497C176.805 103.49 176.964 103.541 177.111 103.613C177.227 103.668 177.335 103.755 177.418 103.849C177.533 103.983 177.616 104.125 177.667 104.295C177.728 104.513 177.71 104.759 177.616 104.966C177.753 104.861 177.897 104.795 178.074 104.781C178.247 104.766 178.431 104.832 178.579 104.919C178.738 105.013 178.882 105.136 178.986 105.285C179.008 105.299 179.037 105.31 179.055 105.332C179.141 105.426 179.177 105.528 179.188 105.655C179.188 105.658 179.188 105.666 179.188 105.669C179.235 105.626 179.275 105.579 179.329 105.546C179.531 105.426 179.765 105.394 179.992 105.444C180.205 105.492 180.393 105.618 180.558 105.753C180.681 105.85 180.786 105.985 180.843 106.133C180.854 106.148 180.872 106.159 180.883 106.177C180.905 106.209 180.912 106.246 180.926 106.278C180.926 106.286 180.93 106.289 180.933 106.296C180.951 106.34 180.962 106.387 180.966 106.434C180.973 106.47 180.991 106.503 180.991 106.543C180.991 106.572 180.991 106.605 180.988 106.634C181.038 106.543 181.099 106.456 181.164 106.373C181.287 106.217 181.435 106.075 181.629 106.017C182.091 105.883 182.462 106.249 182.697 106.601C182.823 106.79 182.888 107.011 182.884 107.228C182.931 107.12 182.992 107.014 183.057 106.913C183.227 106.659 183.429 106.394 183.685 106.224C183.998 106.014 184.398 106.101 184.705 106.271C184.943 106.402 185.156 106.608 185.289 106.848C185.296 106.862 185.3 106.873 185.307 106.887C185.437 106.325 185.963 105.753 186.565 105.807C187.013 105.847 187.377 106.137 187.622 106.507C187.629 106.224 187.766 105.977 187.957 105.756C188.17 105.506 188.448 105.303 188.787 105.299C189.079 105.296 189.345 105.444 189.576 105.618C189.67 105.608 189.764 105.615 189.85 105.669C189.926 105.72 189.987 105.778 190.038 105.843C190.027 105.488 190.171 105.118 190.449 104.893C190.571 104.795 190.694 104.719 190.849 104.676C190.961 104.643 191.087 104.625 191.206 104.632C191.462 104.647 191.7 104.737 191.895 104.901C191.776 104.73 191.696 104.534 191.671 104.317C191.635 103.99 191.769 103.679 191.974 103.436C192.183 103.186 192.5 103.055 192.818 103.033C193.103 103.015 193.38 103.12 193.607 103.287C193.734 103.276 193.863 103.312 193.961 103.41C194.393 103.849 194.383 104.567 193.993 105.027C193.773 105.288 193.424 105.394 193.095 105.419C192.937 105.43 192.775 105.412 192.616 105.383C192.464 105.357 192.309 105.296 192.187 105.209C192.151 105.183 192.122 105.151 192.089 105.122C192.194 105.289 192.252 105.481 192.27 105.68C192.281 105.8 192.263 105.923 192.234 106.039C192.208 106.13 192.172 106.22 192.122 106.3C192.115 106.315 192.111 106.329 192.107 106.344C191.988 106.608 191.75 106.79 191.484 106.887C191.368 106.931 191.231 106.949 191.109 106.942C190.939 106.935 190.795 106.895 190.644 106.826C190.467 106.742 190.333 106.605 190.233 106.441C190.233 106.47 190.24 106.5 190.24 106.532C190.236 106.858 190.16 107.196 189.919 107.431C189.443 107.895 188.718 107.787 188.206 107.442C188.098 107.37 187.997 107.283 187.907 107.188C187.954 107.468 187.914 107.769 187.752 108.004C187.575 108.258 187.312 108.461 187.002 108.515C186.731 108.566 186.447 108.523 186.205 108.392C186.191 108.392 186.18 108.392 186.165 108.389C185.877 108.327 185.628 108.135 185.459 107.895C185.441 107.87 185.433 107.845 185.419 107.819C185.379 107.964 185.311 108.098 185.217 108.218C185.217 108.218 185.217 108.218 185.217 108.222C185.185 108.262 185.152 108.301 185.116 108.338C184.947 108.523 184.727 108.657 184.478 108.704C184.139 108.769 183.822 108.704 183.519 108.537C183.252 108.389 182.981 108.196 182.862 107.906C182.819 107.801 182.805 107.696 182.805 107.594C182.772 107.667 182.729 107.74 182.675 107.801C182.592 107.899 182.484 107.964 182.372 108.008C182.361 108.015 182.354 108.022 182.343 108.03C182.188 108.124 181.99 108.178 181.806 108.164C181.579 108.142 181.391 108.062 181.215 107.921C181.078 107.812 180.984 107.667 180.926 107.507C180.919 107.497 180.908 107.486 180.901 107.475C180.814 107.319 180.811 107.134 180.879 106.971C180.879 106.96 180.879 106.949 180.879 106.935C180.858 106.964 180.836 106.993 180.814 107.018C180.814 107.018 180.807 107.022 180.804 107.025C180.688 107.17 180.533 107.275 180.36 107.344C179.967 107.504 179.513 107.417 179.195 107.141C179.008 106.978 178.885 106.721 178.86 106.46C178.72 106.579 178.561 106.648 178.377 106.666C178.197 106.684 178.024 106.626 177.861 106.554C177.598 106.434 177.382 106.184 177.302 105.905C177.259 105.749 177.256 105.568 177.302 105.412C177.317 105.365 177.342 105.318 177.367 105.27C177.23 105.372 177.086 105.441 176.909 105.455C176.881 105.455 176.852 105.455 176.823 105.455C176.78 105.463 176.74 105.473 176.697 105.473C176.534 105.473 176.358 105.426 176.224 105.332C176.087 105.238 175.968 105.118 175.889 104.969C175.803 104.81 175.766 104.658 175.745 104.48C175.72 104.244 175.803 104.019 175.95 103.842C175.922 103.853 175.896 103.871 175.864 103.878C175.633 103.943 175.359 103.896 175.164 103.755C175.042 103.664 174.959 103.581 174.869 103.458C174.847 103.428 174.833 103.396 174.818 103.367C174.789 103.298 174.757 103.229 174.742 103.157C174.71 102.972 174.721 102.783 174.822 102.62C174.894 102.5 174.995 102.406 175.11 102.33C175.164 102.294 175.229 102.272 175.294 102.25C175.182 102.297 175.063 102.323 174.944 102.312C174.797 102.297 174.66 102.265 174.53 102.181C174.418 102.109 174.331 102.025 174.248 101.92C174.097 101.724 173.985 101.474 173.989 101.22C173.992 100.977 174.101 100.716 174.292 100.561L174.299 100.557Z" fill="#FFF1E0"/>
<path d="M192.45 92.1814C192.45 92.1814 190.55 97.562 189.039 98.7911C187.525 100.024 186.465 99.6686 186.075 99.8462C185.686 100.024 185.059 101.3 182.336 101.59C179.614 101.88 178.788 100.785 177.901 100.517C177.011 100.249 176.838 101.137 175.471 100.535C173.56 99.6939 171.252 95.8942 171.252 95.8942L192.454 92.1814H192.45Z" fill="#E8A56D"/>
<path d="M180.75 176.048H177.559V379.387H180.75V176.048Z" fill="#7D7F8E"/>
<path d="M166.5 160.298C166.5 160.298 170.3 164.04 172.046 162.405C173.791 160.766 170.185 153.866 168.79 153.047C167.394 152.227 166.5 160.298 166.5 160.298Z" fill="#1A1A1A"/>
<path d="M195.587 149.305C195.587 149.305 200.779 152.985 200.675 155.675C200.599 157.724 199.279 159.943 198.169 159.573C197.058 159.203 195.951 154.831 191.74 154.08C187.528 153.326 183.104 153.457 182.246 158.562C181.698 161.817 182.35 175.889 181.482 176.045C180.613 176.201 176.917 176.694 176.65 176.078C175.766 174.029 176.268 155.164 178.352 152.177C180.436 149.189 189.602 145.861 195.583 149.301L195.587 149.305Z" fill="#1A1A1A"/>
<path d="M163.785 146.071C163.41 145.915 160.14 147.427 159.909 150.625C159.674 153.823 165.415 159.827 166.5 160.295C166.5 160.295 171.696 155.059 172.936 154.087C174.177 153.119 178.211 152.467 179.837 151.586C179.837 151.586 182.863 152.485 183.948 154.087C185.033 155.693 185.639 156.937 186.486 157.405C187.334 157.873 189 158.239 188.095 155.683C188.095 155.683 189.36 156.125 189.67 155.501C189.67 155.501 191.347 156.578 191.826 155.48C191.826 155.48 191.293 157.717 192.468 158.42C193.644 159.123 194.884 158.968 195.194 155.846C195.504 152.728 195.894 149.762 195.194 148.594C194.495 147.423 192.742 145.458 192.742 145.458C192.742 145.458 194.57 145.008 195.27 141.267C195.969 137.525 194.725 134.403 193.175 133.624C191.624 132.844 186.194 134.327 183.093 133.468C179.993 132.608 174.872 132.844 173.477 132.92C172.082 133 169.695 134.874 167.603 137.449C165.512 140.023 163.608 142.412 163.424 143.409C163.24 144.407 163.781 146.067 163.781 146.067L163.785 146.071Z" fill="#E8A56D"/>
<path d="M163.951 141.716C165.13 140.067 166.789 138.547 167.971 136.898C168.31 136.423 168.624 136.753 168.281 137.235L165.062 141.731C164.614 142.358 163.832 143.138 163.807 143.946C163.789 144.541 164.074 145.121 164.286 145.694C165.094 144.135 165.956 142.601 167.095 141.263C168.35 139.787 169.655 139.497 170.643 137.797C170.939 137.289 171.454 137.474 171.155 137.985C170.178 139.668 169.233 140.241 167.957 141.662C166.547 143.232 165.584 145.143 164.632 147.01C164.629 147.017 164.622 147.021 164.618 147.028V147.035C164.618 147.079 164.618 147.119 164.618 147.162C164.618 147.206 164.618 147.246 164.625 147.289C164.625 147.296 164.636 147.358 164.636 147.365C164.65 147.438 164.665 147.514 164.687 147.586C164.701 147.634 164.715 147.681 164.733 147.728C164.741 147.746 164.748 147.764 164.751 147.782C164.791 147.866 164.831 147.949 164.881 148.029C164.903 148.065 164.928 148.101 164.95 148.138C164.95 148.138 164.982 148.181 164.993 148.196C165.047 148.264 165.105 148.33 165.17 148.388C165.202 148.42 165.235 148.449 165.267 148.478C165.285 148.493 165.303 148.507 165.321 148.522C165.328 148.525 165.328 148.525 165.339 148.536C165.415 148.591 165.491 148.642 165.57 148.685C165.646 148.729 165.721 148.768 165.801 148.801C165.819 148.808 165.866 148.83 165.876 148.83C165.927 148.848 165.977 148.866 166.028 148.881C166.122 148.91 166.219 148.935 166.316 148.957C166.363 148.968 166.406 148.975 166.453 148.982C166.468 148.982 166.479 148.986 166.486 148.99C166.493 148.99 166.5 148.99 166.515 148.99C166.662 149.004 166.807 149 166.955 149C167.535 146.923 168.458 144.947 169.709 143.188C170.351 142.286 171.076 141.455 171.855 140.669C172.68 139.827 173.488 139.36 174.036 138.301C174.307 137.779 174.786 137.949 174.516 138.471C173.488 140.447 171.905 141.713 170.607 143.497C169.331 145.244 168.397 147.209 167.816 149.294C167.852 149.341 167.885 149.396 167.906 149.454C167.878 149.381 167.957 149.519 167.942 149.512C167.971 149.544 168.025 149.595 168.022 149.595C168.098 149.657 168.177 149.693 168.271 149.722C168.523 149.802 168.765 149.813 169.028 149.834C169.291 149.856 169.565 149.878 169.821 149.82C169.886 149.805 169.951 149.787 170.016 149.762C169.965 149.78 170.081 149.733 170.091 149.726C170.12 149.711 170.149 149.693 170.178 149.675C170.225 149.642 170.232 149.635 170.207 149.657C170.232 149.635 170.257 149.613 170.279 149.588C170.315 149.544 170.322 149.537 170.304 149.566C170.351 149.508 170.405 149.461 170.466 149.421C170.578 148.663 170.968 148.058 171.433 147.452C172.031 146.673 172.63 145.897 173.228 145.117L176.895 140.357C177.252 139.893 177.894 140.545 177.541 141.006C176.427 142.452 175.313 143.899 174.198 145.346L172.579 147.445C172.107 148.058 171.44 148.743 171.357 149.552C171.357 149.57 171.346 149.581 171.343 149.595C172.969 150.926 174.97 147.503 175.796 146.52C176.365 145.842 177 145.204 177.75 144.729C178.157 144.472 178.68 144.298 178.907 143.841C179.102 143.449 179.174 143.051 179.452 142.703C179.845 142.206 180.425 141.887 181.046 141.782C182.311 141.386 183.685 141.354 184.961 141.72C185.297 141.818 188.275 143.228 188.78 143.388C188.798 143.395 188.812 143.406 188.827 143.413C190.373 143.112 192.119 143.972 192.739 145.447C192.836 145.676 192.807 145.937 192.577 146.074C192.385 146.187 192.05 146.14 191.953 145.911C191.444 144.704 190.107 144.059 188.888 144.341C189.934 145.542 190.922 146.818 191.747 148.174C192.227 148.964 192.533 149.798 192.62 150.723C192.714 151.734 192.216 153.989 192.065 154.987C191.974 155.567 191.563 155.697 191.654 155.117C191.791 154.229 191.791 151.709 191.718 150.806C191.643 149.889 191.275 149.109 190.785 148.348C189.822 146.854 188.711 145.462 187.511 144.156C187.456 144.098 187.424 144.037 187.406 143.972C186.862 143.594 186.061 143.109 185.207 142.797C184.63 142.587 184.161 142.869 183.609 143.083C183.227 143.232 182.892 143.239 182.528 143.04C182.088 142.8 181.666 142.641 181.229 142.684C181.002 142.761 180.627 142.877 180.508 142.956C179.776 143.453 179.82 144.454 179.091 144.987C178.716 145.262 178.284 145.451 177.905 145.726C177.498 146.024 177.133 146.383 176.794 146.756C176.174 147.438 175.633 148.192 175.049 148.903C174.036 150.135 172.313 151.491 170.791 150.324C170.286 150.734 169.626 150.802 168.956 150.744C168.566 150.712 168.173 150.679 167.809 150.523C167.51 150.393 167.286 150.182 167.128 149.911C167.117 149.911 167.106 149.918 167.095 149.918C166.154 149.972 165.152 149.682 164.477 148.997C163.897 148.409 163.59 147.543 163.735 146.727C163.659 146.673 163.594 146.597 163.565 146.473C163.381 145.643 162.909 144.878 162.887 144.011C162.866 143.105 163.443 142.402 163.944 141.705L163.951 141.716Z" fill="#D7915C"/>
<path d="M181.741 146.14C183.338 147.111 184.716 148.398 185.794 149.932C186.998 151.647 187.676 153.63 188.322 155.606C188.505 156.168 188.282 156.245 188.098 155.686C187.492 153.826 186.205 152.137 185.091 150.512C184.092 149.058 182.78 147.844 181.283 146.926C180.782 146.622 181.24 145.828 181.745 146.136L181.741 146.14Z" fill="#D7915C"/>
<path d="M180.75 374.764C180.75 374.764 181.489 374.956 181.68 376.733C181.871 378.51 182.177 379.666 181.565 379.898C180.952 380.13 176.91 380.167 176.794 379.666C176.679 379.166 176.823 377.629 176.92 376.425C176.996 375.489 177.313 374.844 177.559 374.764C177.804 374.688 180.75 374.764 180.75 374.764Z" fill="#1A1A1A"/>
<path d="M160.796 83.7008C160.489 86.7754 162.732 89.5274 165.789 89.8355C168.847 90.1437 171.584 87.8885 171.89 84.8139C171.977 83.9292 171.851 83.0772 171.559 82.2976C171.833 81.7103 172.208 81.3368 172.68 81.199C173.437 80.9779 174.245 81.3876 174.501 81.5326C174.861 84.241 177.028 86.4527 179.848 86.7355C183.14 87.0655 186.086 84.6399 186.414 81.3296C186.573 79.7197 186.082 78.1933 185.159 77.0113L190.121 72.1601L190.597 71.0071L184.838 76.6342C183.879 75.59 182.552 74.8757 181.038 74.7235C177.746 74.3935 174.8 76.8191 174.472 80.1294C174.443 80.405 174.443 80.6769 174.454 80.9489C174.014 80.7458 173.282 80.5065 172.547 80.7204C172.042 80.8691 171.631 81.2063 171.31 81.7211C170.477 80.0751 168.858 78.8713 166.896 78.6755C163.839 78.3673 161.102 80.6225 160.796 83.6972V83.7008ZM174.959 80.1802C175.262 77.1382 177.966 74.912 180.987 75.2166C184.009 75.5211 186.227 78.2404 185.924 81.2788C185.621 84.3172 182.917 86.547 179.895 86.2424C176.873 85.9379 174.656 83.2186 174.959 80.1802ZM161.25 83.7443C161.531 80.9199 164.044 78.8496 166.853 79.1324C169.662 79.4152 171.721 81.9423 171.44 84.7668C171.158 87.5912 168.645 89.6615 165.836 89.3787C163.028 89.0959 160.969 86.5688 161.25 83.7443Z" fill="#FFF1E0"/>
<path d="M186.515 103.052C184.633 112.09 181.969 117.787 181.969 117.787L160.608 126.434C160.608 126.434 167.881 101.104 168.768 99.7811C169.161 99.1937 186.966 100.905 186.519 103.048L186.515 103.052Z" fill="#261A1A"/>
<path d="M112.371 128.809C129.589 127.931 144.433 127.289 147.411 125.984C150.39 124.679 153.628 118.758 157.554 114.762C161.481 110.767 169.147 109.454 170.29 109.763C171.433 110.074 170.297 113.149 168.162 114.008C166.031 114.864 163.767 117.424 163.875 118.334C163.983 119.244 172.503 118.754 175.265 118.127C178.027 117.5 183.187 115.905 184.164 115.198C185.141 114.494 185.578 116.463 183.847 118.99C182.12 121.517 179.762 122.464 179.762 122.464C179.762 122.464 180.811 124.78 179.239 126.376C177.67 127.975 173.041 133.152 168.952 135.654C164.863 138.159 154.226 137.8 151.911 138.435C149.597 139.066 101.392 152.144 89.9295 147.836C88.8514 147.43 91.2817 144.635 94.8874 139.646C100.278 132.188 110.587 128.899 112.371 128.809Z" fill="#DF8867"/>
<path d="M217.593 87.8669C218.166 88.9655 218.927 89.6363 221.072 89.7487C223.217 89.8647 223.794 91.2534 224.18 92.7109C224.566 94.1685 227.054 93.1061 228.071 94.56C229.088 96.014 227.494 98.465 226.264 98.5665C225.035 98.668 224.393 96.4527 224.393 96.4527C224.393 96.4527 221.761 99.259 220.405 99.6143C219.049 99.9696 218.22 98.135 217.556 98.0444C216.893 97.9537 215.234 99.8971 214.243 97.9066C213.255 95.9161 214.787 93.9074 213.875 94.3244C212.963 94.7413 210.659 94.4694 211.247 92.1525C211.722 90.2672 213.972 88.0555 214.795 87.2977C214.982 87.1236 215.097 87.0258 215.097 87.0258C215.097 87.0258 216.702 86.1592 217.593 87.8669Z" fill="#EB9267"/>
</g>
<defs>
<clipPath id="clip0_87_6808">
<rect width="333" height="381" fill="white" transform="translate(0 0.598877)"/>
</clipPath>
</defs>
</svg>
